<svg xmlns="http://www.w3.org/2000/svg" width="1720.184" height="925" viewBox="0 0 1720.184 925">
  <g id="Group_1604" data-name="Group 1604" transform="translate(-92.908 -4050)">
    <rect id="Rectangle_690" data-name="Rectangle 690" width="395.184" height="5" rx="2.5" transform="translate(1157.592 4235.592) rotate(180)" fill="#1d66b9"/>
    <rect id="Rectangle_692" data-name="Rectangle 692" width="395.184" height="5" rx="2.5" transform="translate(1157.592 4417.592) rotate(180)" fill="#1d66b9"/>
    <rect id="Rectangle_693" data-name="Rectangle 693" width="395.184" height="5" rx="2.5" transform="translate(1157.592 4609.592) rotate(180)" fill="#1d66b9"/>
    <rect id="Rectangle_694" data-name="Rectangle 694" width="395.184" height="5" rx="2.5" transform="translate(1186.592 4791.592) rotate(180)" fill="#1d66b9"/>
    <rect id="Rectangle_691" data-name="Rectangle 691" width="1720.184" height="5" rx="2.5" transform="translate(1813.092 4118.092) rotate(180)" fill="#1d66b9"/>
    <text id="Design_Brief_" data-name="Design Brief
" transform="translate(105 4050)" fill="#363635" font-size="36" font-family="DMSans-Medium, DM Sans" font-weight="500"><tspan x="0" y="36">Design Brief</tspan></text>
    <text id="Info_required_to_address_brief" data-name="Info required to address brief" transform="translate(1234 4050)" fill="#363635" font-size="36" font-family="DMSans-Medium, DM Sans" font-weight="500"><tspan x="0" y="36">Info required to address brief</tspan></text>
    <g id="Group_1582" data-name="Group 1582" transform="translate(142.789 4204)">
      <path id="star-solid" d="M47.185,1.978l-7.3,14.8-16.326,2.38a3.578,3.578,0,0,0-1.978,6.1L33.4,36.764,30.6,53.024a3.574,3.574,0,0,0,5.185,3.766l14.605-7.677L65,56.789a3.577,3.577,0,0,0,5.185-3.766L67.388,36.764,79.2,25.255a3.578,3.578,0,0,0-1.978-6.1L60.9,16.773l-7.3-14.8a3.579,3.579,0,0,0-6.414,0Z" transform="translate(-20.5 3.048)" fill="#1d66b9"/>
      <text id="Watch_content_with_family_remotely_and_privately." data-name="Watch content with family remotely and privately." transform="translate(104.211)" fill="#39393a" font-size="24" font-family="DMSans-Medium, DM Sans" font-weight="500"><tspan x="0" y="24">Watch content with family remotely and </tspan><tspan x="0" y="59">privately.</tspan></text>
    </g>
    <g id="Group_1583" data-name="Group 1583" transform="translate(142.789 4386.247)">
      <path id="star-solid-2" data-name="star-solid" d="M47.185,1.978l-7.3,14.8-16.326,2.38a3.578,3.578,0,0,0-1.978,6.1L33.4,36.764,30.6,53.024a3.574,3.574,0,0,0,5.185,3.766l14.605-7.677L65,56.789a3.577,3.577,0,0,0,5.185-3.766L67.388,36.764,79.2,25.255a3.578,3.578,0,0,0-1.978-6.1L60.9,16.773l-7.3-14.8a3.579,3.579,0,0,0-6.414,0Z" transform="translate(-20.5 0.048)" fill="#1d66b9"/>
      <text id="Engage_in_realtime_conversations_before_during_or_afterwards." data-name="Engage in realtime conversations before, during, or afterwards." transform="translate(104.211 -0.246)" fill="#39393a" font-size="24" font-family="DMSans-Medium, DM Sans" font-weight="500"><tspan x="0" y="24">Engage in realtime conversations before, </tspan><tspan x="0" y="59">during, or afterwards.</tspan></text>
    </g>
    <g id="Group_1584" data-name="Group 1584" transform="translate(142.789 4580.754)">
      <path id="star-solid-3" data-name="star-solid" d="M47.185,1.978l-7.3,14.8-16.326,2.38a3.578,3.578,0,0,0-1.978,6.1L33.4,36.764,30.6,53.024a3.574,3.574,0,0,0,5.185,3.766l14.605-7.677L65,56.789a3.577,3.577,0,0,0,5.185-3.766L67.388,36.764,79.2,25.255a3.578,3.578,0,0,0-1.978-6.1L60.9,16.773l-7.3-14.8a3.579,3.579,0,0,0-6.414,0Z" transform="translate(-20.5 10.247)" fill="#1d66b9"/>
      <text id="Create_anticipation_by_scheduling_watch_parties_and_pre-event_discussion." data-name="Create anticipation by scheduling watch parties and pre-event discussion." transform="translate(104.211 0.246)" fill="#39393a" font-size="24" font-family="DMSans-Medium, DM Sans" font-weight="500"><tspan x="0" y="24">Create anticipation by scheduling watch </tspan><tspan x="0" y="59">parties and pre-event discussion.</tspan></text>
    </g>
    <g id="Group_1585" data-name="Group 1585" transform="translate(142.789 4772.607)">
      <path id="star-solid-4" data-name="star-solid" d="M47.185,1.978l-7.3,14.8-16.326,2.38a3.578,3.578,0,0,0-1.978,6.1L33.4,36.764,30.6,53.024a3.574,3.574,0,0,0,5.185,3.766l14.605-7.677L65,56.789a3.577,3.577,0,0,0,5.185-3.766L67.388,36.764,79.2,25.255a3.578,3.578,0,0,0-1.978-6.1L60.9,16.773l-7.3-14.8a3.579,3.579,0,0,0-6.414,0Z" transform="translate(-20.5 0.445)" fill="#1d66b9"/>
      <text id="Schedule_and_join_small_community_and_large_worldwide_watch_parties." data-name="Schedule and join small community and large worldwide watch parties." transform="translate(104.211 0.393)" fill="#39393a" font-size="24" font-family="DMSans-Medium, DM Sans" font-weight="500"><tspan x="0" y="24">Schedule and join small community and large </tspan><tspan x="0" y="59">worldwide watch parties.</tspan></text>
    </g>
    <circle id="Ellipse_18" data-name="Ellipse 18" cx="7.5" cy="7.5" r="7.5" transform="translate(1143 4226)" fill="#1d66b9"/>
    <circle id="Ellipse_19" data-name="Ellipse 19" cx="7.5" cy="7.5" r="7.5" transform="translate(1143 4408)" fill="#1d66b9"/>
    <circle id="Ellipse_20" data-name="Ellipse 20" cx="7.5" cy="7.5" r="7.5" transform="translate(1143 4600)" fill="#1d66b9"/>
    <circle id="Ellipse_21" data-name="Ellipse 21" cx="7.5" cy="7.5" r="7.5" transform="translate(1172 4782)" fill="#1d66b9"/>
    <g id="Group_1586" data-name="Group 1586" transform="translate(1260.598 4165)">
      <text id="Chat" transform="translate(21.402 29)" fill="#39393a" font-size="24" font-family="DMSans-Regular, DM Sans"><tspan x="0" y="0">Chat</tspan></text>
      <circle id="Ellipse_6" data-name="Ellipse 6" cx="5.5" cy="5.5" r="5.5" transform="translate(0.403 14)" fill="#39393a"/>
    </g>
    <g id="Group_1587" data-name="Group 1587" transform="translate(1260.598 4291)">
      <text id="Invite_Link" data-name="Invite Link" transform="translate(21.402 29)" fill="#39393a" font-size="24" font-family="DMSans-Regular, DM Sans"><tspan x="0" y="0">Invite Link</tspan></text>
      <circle id="Ellipse_6-2" data-name="Ellipse 6" cx="5.5" cy="5.5" r="5.5" transform="translate(0.402 14)" fill="#39393a"/>
    </g>
    <g id="Group_1588" data-name="Group 1588" transform="translate(1260.598 4207)">
      <text id="Audio_Video_Call" data-name="Audio/Video Call" transform="translate(21.402 29)" fill="#39393a" font-size="24" font-family="DMSans-Regular, DM Sans"><tspan x="0" y="0">Audio/Video Call</tspan></text>
      <circle id="Ellipse_6-3" data-name="Ellipse 6" cx="5.5" cy="5.5" r="5.5" transform="translate(0.403 14)" fill="#39393a"/>
    </g>
    <g id="Group_1589" data-name="Group 1589" transform="translate(1260.598 4249)">
      <text id="Playlist" transform="translate(21.402 29)" fill="#39393a" font-size="24" font-family="DMSans-Regular, DM Sans"><tspan x="0" y="0">Playlist</tspan></text>
      <circle id="Ellipse_6-4" data-name="Ellipse 6" cx="5.5" cy="5.5" r="5.5" transform="translate(0.403 14)" fill="#39393a"/>
    </g>
    <g id="Group_1506" data-name="Group 1506" transform="translate(1255 4381)">
      <text id="Comments" transform="translate(21 29)" fill="#39393a" font-size="24" font-family="DMSans-Regular, DM Sans"><tspan x="0" y="0">Comments</tspan></text>
      <circle id="Ellipse_6-5" data-name="Ellipse 6" cx="5.5" cy="5.5" r="5.5" transform="translate(0 14)" fill="#39393a"/>
    </g>
    <g id="Group_1507" data-name="Group 1507" transform="translate(1255 4423)">
      <text id="Name" transform="translate(21 29)" fill="#39393a" font-size="24" font-family="DMSans-Regular, DM Sans"><tspan x="0" y="0">Name</tspan></text>
      <circle id="Ellipse_6-6" data-name="Ellipse 6" cx="5.5" cy="5.5" r="5.5" transform="translate(0 14)" fill="#39393a"/>
    </g>
    <g id="Group_1508" data-name="Group 1508" transform="translate(1255 4465)">
      <text id="Time" transform="translate(21 29)" fill="#39393a" font-size="24" font-family="DMSans-Regular, DM Sans"><tspan x="0" y="0">Time</tspan></text>
      <circle id="Ellipse_6-7" data-name="Ellipse 6" cx="5.5" cy="5.5" r="5.5" transform="translate(0 14)" fill="#39393a"/>
    </g>
    <g id="Group_1590" data-name="Group 1590" transform="translate(1255 4576)">
      <text id="Date_Time_Timezone" data-name="Date, Time, Timezone" transform="translate(21 29)" fill="#39393a" font-size="24" font-family="DMSans-Regular, DM Sans"><tspan x="0" y="0">Date, Time, Timezone</tspan></text>
      <circle id="Ellipse_6-8" data-name="Ellipse 6" cx="5.5" cy="5.5" r="5.5" transform="translate(0 14)" fill="#39393a"/>
    </g>
    <g id="Group_1591" data-name="Group 1591" transform="translate(1255 4618)">
      <text id="User_who_scheduled" data-name="User who scheduled" transform="translate(21 29)" fill="#39393a" font-size="24" font-family="DMSans-Regular, DM Sans"><tspan x="0" y="0">User who scheduled</tspan></text>
      <circle id="Ellipse_6-9" data-name="Ellipse 6" cx="5.5" cy="5.5" r="5.5" transform="translate(0 14)" fill="#39393a"/>
    </g>
    <g id="Group_1592" data-name="Group 1592" transform="translate(1255 4660)">
      <text id="Confirmation" transform="translate(21 29)" fill="#39393a" font-size="24" font-family="DMSans-Regular, DM Sans"><tspan x="0" y="0">Confirmation</tspan></text>
      <circle id="Ellipse_6-10" data-name="Ellipse 6" cx="5.5" cy="5.5" r="5.5" transform="translate(0 14)" fill="#39393a"/>
    </g>
    <g id="Group_1602" data-name="Group 1602" transform="translate(1255.086 4902)">
      <g id="Group_1595" data-name="Group 1595">
        <text id="Ability_to_share" data-name="Ability to share" transform="translate(20.914 24)" fill="#39393a" font-size="24" font-family="DMSans-Regular, DM Sans"><tspan x="0" y="0">Ability to share</tspan></text>
        <circle id="Ellipse_6-11" data-name="Ellipse 6" cx="5.5" cy="5.5" r="5.5" transform="translate(-0.086 9)" fill="#39393a"/>
      </g>
      <g id="Group_1596" data-name="Group 1596" transform="translate(1 42)">
        <text id="Ability_to_like" data-name="Ability to like" transform="translate(20.914 24)" fill="#39393a" font-size="24" font-family="DMSans-Regular, DM Sans"><tspan x="0" y="0">Ability to like</tspan></text>
        <circle id="Ellipse_6-12" data-name="Ellipse 6" cx="5.5" cy="5.5" r="5.5" transform="translate(-0.086 9)" fill="#39393a"/>
      </g>
    </g>
    <g id="Group_1603" data-name="Group 1603" transform="translate(1255 4776)">
      <g id="Group_1593" data-name="Group 1593">
        <text id="Genres" transform="translate(21 24)" fill="#39393a" font-size="24" font-family="DMSans-Regular, DM Sans"><tspan x="0" y="0">Genres</tspan></text>
        <circle id="Ellipse_6-13" data-name="Ellipse 6" cx="5.5" cy="5.5" r="5.5" transform="translate(0 9)" fill="#39393a"/>
      </g>
      <g id="Group_1597" data-name="Group 1597" transform="translate(0 42)">
        <text id="Locations" transform="translate(21 24)" fill="#39393a" font-size="24" font-family="DMSans-Regular, DM Sans"><tspan x="0" y="0">Locations</tspan></text>
        <circle id="Ellipse_6-14" data-name="Ellipse 6" cx="5.5" cy="5.5" r="5.5" transform="translate(0 9)" fill="#39393a"/>
      </g>
      <g id="Group_1599" data-name="Group 1599" transform="translate(0 84)">
        <text id="Timing_for_events" data-name="Timing for events" transform="translate(21 24)" fill="#39393a" font-size="24" font-family="DMSans-Regular, DM Sans"><tspan x="0" y="0">Timing for events</tspan></text>
        <circle id="Ellipse_6-15" data-name="Ellipse 6" cx="5.5" cy="5.5" r="5.5" transform="translate(0 9)" fill="#39393a"/>
      </g>
    </g>
    <g id="Group_1601" data-name="Group 1601" transform="translate(1497.2 4776)">
      <g id="Group_1594" data-name="Group 1594">
        <text id="Title" transform="translate(20.8 24)" fill="#39393a" font-size="24" font-family="DMSans-Regular, DM Sans"><tspan x="0" y="0">Title</tspan></text>
        <circle id="Ellipse_6-16" data-name="Ellipse 6" cx="5.5" cy="5.5" r="5.5" transform="translate(-0.2 9)" fill="#39393a"/>
      </g>
      <g id="Group_1598" data-name="Group 1598" transform="translate(0 42)">
        <text id="Description" transform="translate(20.8 24)" fill="#39393a" font-size="24" font-family="DMSans-Regular, DM Sans"><tspan x="0" y="0">Description</tspan></text>
        <circle id="Ellipse_6-17" data-name="Ellipse 6" cx="5.5" cy="5.5" r="5.5" transform="translate(-0.2 9)" fill="#39393a"/>
      </g>
      <g id="Group_1600" data-name="Group 1600" transform="translate(0 84)">
        <text id="Time-2" data-name="Time" transform="translate(20.8 24)" fill="#39393a" font-size="24" font-family="DMSans-Regular, DM Sans"><tspan x="0" y="0">Time</tspan></text>
        <circle id="Ellipse_6-18" data-name="Ellipse 6" cx="5.5" cy="5.5" r="5.5" transform="translate(-0.2 9)" fill="#39393a"/>
      </g>
    </g>
  </g>
</svg>
