<?xml version="1.0" standalone="no"?>
<!DOCTYPE svg PUBLIC "-//W3C//DTD SVG 20010904//EN"
 "http://www.w3.org/TR/2001/REC-SVG-20010904/DTD/svg10.dtd">
<svg version="1.0" xmlns="http://www.w3.org/2000/svg"
 width="700.000000pt" height="700.000000pt" viewBox="0 0 700.000000 700.000000"
 preserveAspectRatio="xMidYMid meet">
<metadata>
Created by potrace 1.14, written by Peter Selinger 2001-2017
</metadata>
<g transform="translate(0.000000,700.000000) scale(0.100000,-0.100000)"
fill="#000000" stroke="none">
<path d="M1805 6984 c-132 -18 -282 -51 -400 -88 -5 -2 -12 -4 -15 -4 -16 -2
-214 -89 -269 -118 -104 -54 -256 -145 -271 -163 -3 -3 -23 -20 -45 -36 -70
-52 -77 -58 -190 -170 -126 -125 -151 -153 -221 -250 -110 -153 -208 -337
-273 -516 -36 -98 -87 -298 -96 -378 -4 -30 -10 -63 -13 -75 -4 -12 -7 -754
-8 -1651 -2 -1784 -4 -1725 57 -1970 147 -594 548 -1091 1093 -1354 169 -82
355 -146 486 -167 19 -3 38 -8 41 -10 3 -1 28 -6 55 -9 27 -3 76 -10 109 -15
71 -10 3301 -7 3360 3 417 76 683 185 974 400 102 75 277 243 361 347 179 219
323 508 395 789 63 250 59 127 61 1911 2 933 -1 1655 -7 1695 -5 39 -11 86
-15 105 -3 19 -8 49 -10 65 -25 153 -90 348 -174 520 -202 417 -550 761 -971
959 -112 53 -264 108 -359 131 -110 26 -153 34 -195 39 -27 4 -81 10 -120 15
-39 5 -779 9 -1655 9 -1272 0 -1605 -3 -1685 -14z"/>
</g>
</svg>
