<svg width="229" height="45" viewBox="0 0 229 45" fill="none" xmlns="http://www.w3.org/2000/svg">
<path d="M220.603 44.6641C221.664 44.9726 222.773 44.3629 223.082 43.3023L228.109 26.0185C228.418 24.9579 227.808 23.848 226.747 23.5396C225.687 23.2311 224.577 23.8408 224.268 24.9014L219.8 40.2647L204.436 35.7962C203.376 35.4877 202.266 36.0974 201.957 37.158C201.649 38.2187 202.259 39.3285 203.319 39.637L220.603 44.6641ZM222.914 41.7807C217.672 32.2384 207.328 23.8782 193.457 17.2425C179.549 10.5894 161.908 5.57778 141.784 2.84593C101.533 -2.61815 51.1305 1.0084 0.328268 19.1161L1.67126 22.8839C51.8691 4.99163 101.627 1.43122 141.246 6.80958C161.057 9.49895 178.279 14.4159 191.731 20.8508C205.218 27.3031 214.73 35.1902 219.409 43.7067L222.914 41.7807Z" fill="#505050"/>
</svg>
