<svg width="539" height="532" viewBox="0 0 539 532" fill="none" xmlns="http://www.w3.org/2000/svg">
<rect x="1" y="1" width="536.664" height="530" rx="31" fill="#FCFCFC" stroke="#343434" stroke-width="2"/>
<path d="M1 32C1 14.8792 14.8792 1 32 1H506.664C523.785 1 537.664 14.8792 537.664 32V69.2082H1V32Z" fill="#343434" stroke="#343434" stroke-width="2"/>
<circle cx="436.485" cy="38.8724" r="6.66388" fill="#FCFCFC"/>
<circle cx="460.92" cy="38.8724" r="6.66388" fill="#FCFCFC"/>
<circle cx="485.353" cy="38.8724" r="6.66388" fill="#FCFCFC"/>
<rect x="23.7656" y="84.874" width="231.649" height="117.82" fill="#1882FF" stroke="#343434" stroke-width="2"/>
<rect x="23.7656" y="214.279" width="231.649" height="289.162" fill="#6218FF" stroke="#343434" stroke-width="2"/>
<rect x="510.631" y="84.874" width="418.568" height="240.036" transform="rotate(90 510.631 84.874)" fill="#FFCC18" stroke="#343434" stroke-width="2"/>
<path d="M189.588 331.22C189.407 331.22 189.23 331.168 189.079 331.07C188.927 330.971 188.807 330.831 188.733 330.666C187.839 328.671 187.459 326.483 187.628 324.302C187.796 322.122 188.507 320.018 189.697 318.183C190.886 316.348 192.516 314.84 194.437 313.796C196.359 312.752 198.511 312.205 200.698 312.206C200.946 312.206 201.185 312.304 201.36 312.48C201.536 312.655 201.634 312.893 201.634 313.142V325.311C201.634 325.492 201.582 325.669 201.484 325.82C201.385 325.972 201.245 326.092 201.08 326.166L189.97 331.136C189.85 331.19 189.72 331.219 189.588 331.22Z" fill="#AA95FD"/>
<path d="M204.068 314.322C204 314.309 203.93 314.31 203.863 314.327C203.795 314.343 203.733 314.375 203.679 314.418C203.625 314.462 203.582 314.517 203.552 314.58C203.523 314.642 203.507 314.711 203.507 314.78V325.311C203.506 325.853 203.349 326.383 203.055 326.838C202.76 327.293 202.34 327.653 201.845 327.875L191.755 332.39C191.692 332.418 191.637 332.459 191.592 332.511C191.547 332.563 191.514 332.624 191.495 332.69C191.477 332.756 191.473 332.825 191.484 332.892C191.495 332.96 191.52 333.024 191.559 333.081C192.331 334.217 193.29 335.214 194.394 336.03C196.486 337.587 199.027 338.424 201.635 338.416C208.345 338.416 213.804 332.957 213.804 326.247C213.804 320.37 209.616 315.453 204.068 314.322Z" fill="#AA95FD"/>
<path d="M358.065 253.148H339.39C338.906 253.148 338.442 252.955 338.1 252.613C337.757 252.271 337.565 251.806 337.565 251.322V232.647C337.565 232.237 337.402 231.845 337.113 231.555C336.823 231.265 336.43 231.103 336.02 231.103C335.611 231.103 335.218 231.265 334.928 231.555C334.639 231.845 334.476 232.237 334.476 232.647V237.421H329.702C329.292 237.421 328.899 237.584 328.61 237.874C328.32 238.163 328.157 238.556 328.157 238.966C328.157 239.375 328.32 239.768 328.61 240.058C328.899 240.348 329.292 240.51 329.702 240.51H334.476V251.322C334.477 252.625 334.996 253.874 335.917 254.796C336.838 255.717 338.087 256.235 339.39 256.237H350.202V261.011C350.202 261.42 350.365 261.813 350.655 262.103C350.944 262.393 351.337 262.555 351.747 262.555C352.156 262.555 352.549 262.393 352.839 262.103C353.129 261.813 353.291 261.42 353.291 261.011V256.237H358.065C358.475 256.237 358.868 256.074 359.158 255.784C359.447 255.495 359.61 255.102 359.61 254.692C359.61 254.282 359.447 253.89 359.158 253.6C358.868 253.31 358.475 253.148 358.065 253.148Z" fill="#FDE695"/>
<path d="M340.934 240.51H348.376C348.86 240.51 349.325 240.703 349.667 241.045C350.009 241.387 350.202 241.852 350.202 242.336V249.778C350.202 250.187 350.364 250.58 350.654 250.87C350.944 251.16 351.336 251.322 351.746 251.322C352.156 251.322 352.549 251.16 352.838 250.87C353.128 250.58 353.291 250.187 353.291 249.778V242.336C353.289 241.033 352.771 239.784 351.85 238.862C350.928 237.941 349.679 237.423 348.376 237.421H340.934C340.525 237.421 340.132 237.584 339.842 237.874C339.552 238.163 339.39 238.556 339.39 238.966C339.39 239.376 339.552 239.768 339.842 240.058C340.132 240.348 340.525 240.51 340.934 240.51Z" fill="#FDE695"/>
<path d="M190.491 403.731L168.032 381.271C173.439 374.073 176.358 365.311 176.348 356.308C176.348 333.311 157.639 314.602 134.642 314.602C111.645 314.602 92.9355 333.311 92.9355 356.308C92.9355 379.305 111.645 398.014 134.642 398.014C143.645 398.024 152.407 395.105 159.605 389.698L182.065 412.157C183.202 413.174 184.685 413.716 186.209 413.673C187.733 413.631 189.184 413.006 190.262 411.928C191.34 410.85 191.965 409.399 192.007 407.875C192.05 406.351 191.508 404.868 190.491 403.731ZM104.852 356.308C104.852 350.416 106.599 344.656 109.872 339.757C113.146 334.858 117.798 331.04 123.242 328.785C128.685 326.531 134.675 325.941 140.454 327.09C146.232 328.24 151.54 331.077 155.707 335.243C159.873 339.409 162.71 344.717 163.86 350.496C165.009 356.275 164.419 362.265 162.164 367.708C159.91 373.152 156.091 377.804 151.192 381.077C146.293 384.351 140.534 386.098 134.642 386.098C126.744 386.089 119.172 382.947 113.587 377.362C108.003 371.778 104.861 364.206 104.852 356.308Z" fill="#FCFCFC"/>
<path d="M97.6517 116.228C97.6521 115.492 97.459 114.77 97.092 114.133C96.7249 113.495 96.1968 112.966 95.5605 112.597C94.9243 112.228 94.2022 112.034 93.4669 112.032C92.7315 112.03 92.0087 112.222 91.3709 112.588C90.7331 112.954 90.2027 113.482 89.833 114.117C89.4632 114.753 89.2671 115.475 89.2644 116.21C89.2616 116.945 89.4522 117.668 89.8172 118.307C90.1821 118.945 90.7085 119.477 91.3435 119.847C91.1934 121.753 90.0277 122.272 86.429 123.02C85.2653 123.261 84.0746 123.508 82.9751 123.933V115.663C83.7746 115.202 84.3994 114.489 84.7527 113.636C85.106 112.784 85.168 111.838 84.9291 110.946C84.6901 110.054 84.1636 109.266 83.4312 108.705C82.6988 108.143 81.8014 107.838 80.8783 107.838C79.9551 107.838 79.0577 108.143 78.3253 108.705C77.5929 109.266 77.0664 110.054 76.8275 110.946C76.5885 111.838 76.6505 112.784 77.0038 113.636C77.3571 114.489 77.9819 115.202 78.7814 115.663V129.373C77.9831 129.834 77.359 130.545 77.0055 131.396C76.652 132.248 76.5888 133.192 76.8258 134.083C77.0627 134.973 77.5866 135.761 78.3163 136.325C79.0461 136.888 79.9411 137.195 80.8629 137.198C81.7847 137.202 82.682 136.901 83.4159 136.344C84.1498 135.786 84.6796 135.002 84.9232 134.113C85.1667 133.224 85.1106 132.279 84.7635 131.425C84.4163 130.571 83.7975 129.855 83.0026 129.389C83.1592 128.209 84.0511 127.794 87.2789 127.127C89.0763 126.755 90.934 126.37 92.5066 125.361C94.4069 124.143 95.4245 122.295 95.5444 119.864C96.1845 119.497 96.7164 118.967 97.0864 118.329C97.4564 117.69 97.6514 116.966 97.6517 116.228ZM80.877 109.937C81.2917 109.937 81.6971 110.06 82.0419 110.29C82.3867 110.521 82.6555 110.848 82.8142 111.231C82.9729 111.615 83.0144 112.036 82.9335 112.443C82.8526 112.85 82.6529 113.223 82.3596 113.517C82.0664 113.81 81.6928 114.01 81.286 114.09C80.8793 114.171 80.4577 114.13 80.0745 113.971C79.6914 113.812 79.3639 113.544 79.1335 113.199C78.9031 112.854 78.7801 112.449 78.7801 112.034C78.7801 111.478 79.001 110.944 79.3943 110.551C79.7875 110.158 80.3208 109.937 80.877 109.937ZM80.877 135.099C80.4622 135.099 80.0568 134.976 79.712 134.746C79.3672 134.515 79.0984 134.188 78.9397 133.805C78.781 133.422 78.7395 133 78.8204 132.593C78.9013 132.187 79.101 131.813 79.3943 131.52C79.6875 131.226 80.0611 131.027 80.4679 130.946C80.8746 130.865 81.2962 130.906 81.6794 131.065C82.0625 131.224 82.39 131.493 82.6204 131.837C82.8508 132.182 82.9738 132.588 82.9738 133.002C82.9738 133.558 82.7529 134.092 82.3596 134.485C81.9664 134.878 81.4331 135.099 80.877 135.099ZM93.458 118.324C93.0433 118.324 92.6379 118.201 92.2931 117.971C91.9483 117.741 91.6795 117.413 91.5208 117.03C91.3621 116.647 91.3206 116.225 91.4015 115.819C91.4824 115.412 91.6821 115.038 91.9753 114.745C92.2686 114.452 92.6422 114.252 93.049 114.171C93.4557 114.09 93.8773 114.132 94.2605 114.29C94.6436 114.449 94.9711 114.718 95.2015 115.063C95.4319 115.407 95.5549 115.813 95.5549 116.228C95.5549 116.784 95.334 117.317 94.9407 117.71C94.5475 118.104 94.0142 118.324 93.458 118.324Z" fill="#95B8FD"/>
<g clip-path="url(#clip0)">
<path d="M71.0314 423.188H69.0843C68.697 423.188 68.3256 423.034 68.0517 422.761C67.7779 422.487 67.624 422.115 67.624 421.728V412.966C67.624 412.579 67.7779 412.207 68.0517 411.934C68.3256 411.66 68.697 411.506 69.0843 411.506H71.0314C71.4187 411.506 71.7901 411.66 72.064 411.934C72.3379 412.207 72.4917 412.579 72.4917 412.966V421.728C72.4917 422.115 72.3379 422.487 72.064 422.761C71.7901 423.034 71.4187 423.188 71.0314 423.188Z" fill="#AA95FD"/>
<path d="M84.6603 423.188H82.7132C82.3259 423.188 81.9545 423.034 81.6806 422.76C81.4068 422.487 81.2529 422.115 81.2529 421.728V407.125C81.2529 406.738 81.4068 406.366 81.6806 406.092C81.9545 405.818 82.3259 405.665 82.7132 405.665H84.6603C85.0476 405.665 85.419 405.818 85.6929 406.092C85.9668 406.366 86.1206 406.738 86.1206 407.125V421.728C86.1206 422.115 85.9668 422.487 85.6929 422.76C85.419 423.034 85.0476 423.188 84.6603 423.188Z" fill="#AA95FD"/>
<path d="M91.4757 423.188H89.5287C89.1414 423.188 88.7699 423.035 88.4961 422.761C88.2222 422.487 88.0684 422.115 88.0684 421.728V400.31C88.0684 399.923 88.2222 399.552 88.4961 399.278C88.7699 399.004 89.1414 398.85 89.5287 398.85H91.4757C91.863 398.85 92.2345 399.004 92.5083 399.278C92.7822 399.552 92.936 399.923 92.936 400.31V421.728C92.936 422.115 92.7822 422.487 92.5083 422.761C92.2345 423.035 91.863 423.188 91.4757 423.188Z" fill="#AA95FD"/>
<path d="M77.8459 423.189H75.8988C75.5115 423.189 75.14 423.035 74.8662 422.761C74.5923 422.487 74.4385 422.115 74.4385 421.728V395.443C74.4385 395.055 74.5923 394.684 74.8662 394.41C75.14 394.136 75.5115 393.982 75.8988 393.982H77.8459C78.2331 393.982 78.6046 394.136 78.8784 394.41C79.1523 394.684 79.3062 395.055 79.3062 395.443V421.728C79.3062 422.115 79.1523 422.487 78.8784 422.761C78.6046 423.035 78.2331 423.189 77.8459 423.189Z" fill="#AA95FD"/>
</g>
<path d="M126.11 161.167C125.491 161.168 124.893 160.943 124.428 160.534L108.852 146.905C108.578 146.665 108.358 146.369 108.208 146.038C108.057 145.706 107.979 145.346 107.979 144.982C107.979 144.618 108.057 144.258 108.208 143.926C108.358 143.595 108.578 143.299 108.852 143.059L124.428 129.43C124.938 128.983 125.605 128.758 126.281 128.803C126.957 128.848 127.588 129.16 128.035 129.67C128.481 130.18 128.706 130.847 128.661 131.523C128.616 132.199 128.304 132.83 127.794 133.276L114.414 144.982L127.793 156.688C128.185 157.03 128.462 157.484 128.589 157.988C128.716 158.492 128.686 159.023 128.503 159.51C128.32 159.997 127.993 160.417 127.566 160.713C127.138 161.009 126.63 161.167 126.11 161.167Z" fill="#FCFCFC"/>
<path d="M149.476 161.167C148.955 161.167 148.448 161.009 148.02 160.713C147.592 160.417 147.265 159.998 147.081 159.511C146.898 159.024 146.868 158.493 146.995 157.988C147.122 157.484 147.4 157.03 147.791 156.688L161.172 144.982L147.793 133.276C147.283 132.83 146.971 132.199 146.926 131.523C146.881 130.847 147.106 130.18 147.552 129.67C147.999 129.16 148.629 128.848 149.306 128.803C149.982 128.758 150.649 128.983 151.159 129.43L166.735 143.059C167.009 143.299 167.229 143.595 167.379 143.926C167.53 144.258 167.607 144.618 167.607 144.982C167.607 145.346 167.53 145.706 167.379 146.038C167.229 146.369 167.009 146.665 166.735 146.905L151.159 160.534C150.694 160.943 150.095 161.168 149.476 161.167Z" fill="#FCFCFC"/>
<path d="M131.951 167.008C131.553 167.008 131.161 166.915 130.805 166.736C130.45 166.558 130.141 166.298 129.903 165.979C129.665 165.66 129.505 165.29 129.436 164.898C129.366 164.506 129.389 164.104 129.503 163.722L141.185 124.781C141.273 124.45 141.427 124.141 141.637 123.871C141.846 123.601 142.108 123.375 142.407 123.208C142.705 123.041 143.034 122.936 143.374 122.898C143.714 122.861 144.058 122.892 144.385 122.989C144.713 123.087 145.018 123.25 145.282 123.467C145.545 123.685 145.763 123.953 145.921 124.257C146.079 124.56 146.175 124.892 146.202 125.233C146.23 125.573 146.189 125.916 146.081 126.241L134.399 165.182C134.242 165.71 133.919 166.172 133.478 166.501C133.037 166.83 132.501 167.007 131.951 167.008Z" fill="#FCFCFC"/>
<path d="M384.292 310.642C383.874 310.643 383.458 310.578 383.06 310.449C382.345 310.217 381.709 309.789 381.226 309.214C380.742 308.638 380.43 307.938 380.326 307.193C379.787 303.437 375.33 299.065 371.156 298.216C370.467 298.074 369.827 297.752 369.302 297.284C368.776 296.816 368.383 296.217 368.163 295.549C367.942 294.88 367.902 294.166 368.045 293.476C368.189 292.787 368.511 292.148 368.98 291.623L421.838 232.753C421.886 232.698 421.936 232.645 421.986 232.595C424.641 229.947 428.238 228.46 431.988 228.46C435.738 228.46 439.335 229.947 441.991 232.595C444.637 235.244 446.127 238.834 446.132 242.578C446.137 246.323 444.658 249.917 442.018 252.573L387.179 309.415C386.805 309.803 386.357 310.112 385.861 310.322C385.365 310.533 384.831 310.642 384.292 310.642Z" fill="#FCFCFC"/>
<path d="M355.93 340.69C347.882 340.69 339.541 336.461 334.684 329.923C334.241 329.327 333.973 328.619 333.908 327.879C333.844 327.139 333.987 326.396 334.321 325.733C334.655 325.07 335.166 324.512 335.799 324.123C336.431 323.733 337.159 323.527 337.901 323.527C339.239 323.527 342.909 322.308 342.909 318.376C342.909 308.593 350.772 300.633 360.438 300.633C370.103 300.633 377.966 308.593 377.966 318.376C377.966 330.676 368.08 340.69 355.93 340.69Z" fill="#FCFCFC"/>
<path d="M427.158 326.509C426.307 326.509 425.456 326.358 424.793 326.056L415.441 321.791C415.013 321.597 414.016 321.028 414.016 319.953C414.016 318.878 415.013 318.31 415.442 318.113L424.875 313.812C426.175 313.218 428.136 313.218 429.436 313.812L438.874 318.113C439.303 318.308 440.301 318.877 440.301 319.953C440.301 321.028 439.303 321.596 438.874 321.792L429.523 326.056C428.861 326.358 428.009 326.509 427.158 326.509Z" fill="#FDE695"/>
<path d="M438.871 324.665L437.917 324.234L435.467 325.355L429.528 328.072C428.864 328.376 428.011 328.527 427.162 328.527C426.313 328.527 425.461 328.376 424.798 328.072L418.854 325.355L416.403 324.234L415.442 324.667C415.013 324.862 414.016 325.435 414.016 326.509C414.016 327.583 415.013 328.157 415.441 328.352L424.793 332.626C425.452 332.929 426.305 333.08 427.158 333.08C428.012 333.08 428.861 332.929 429.524 332.626L438.867 328.354C439.298 328.159 440.301 327.589 440.301 326.509C440.301 325.429 439.305 324.862 438.871 324.665Z" fill="#FDE695"/>
<path d="M438.871 331.235L437.917 330.806L435.467 331.926L429.528 334.64C428.864 334.942 428.011 335.093 427.162 335.093C426.313 335.093 425.461 334.942 424.798 334.64L418.854 331.923L416.403 330.806L415.442 331.238C415.013 331.433 414.016 332.006 414.016 333.08C414.016 334.155 415.013 334.728 415.441 334.922L424.793 339.193C425.452 339.495 426.308 339.652 427.158 339.652C428.009 339.652 428.857 339.495 429.52 339.192L438.867 334.923C439.298 334.728 440.301 334.158 440.301 333.08C440.301 332.002 439.305 331.433 438.871 331.235Z" fill="#FDE695"/>
<path d="M95.2567 300.748C94.769 300.748 94.2887 300.867 93.8575 301.095C93.4263 301.323 93.0573 301.653 92.7825 302.055C92.5078 302.458 92.3356 302.922 92.2809 303.407C92.2262 303.892 92.2906 304.382 92.4686 304.836L86.1653 311.14C85.4627 310.863 84.6813 310.863 83.9786 311.14L79.4727 306.634C79.6511 306.18 79.7159 305.689 79.6613 305.204C79.6068 304.719 79.4347 304.255 79.1599 303.851C78.8851 303.448 78.5159 303.118 78.0845 302.89C77.6531 302.662 77.1726 302.543 76.6846 302.543C76.1966 302.543 75.7161 302.662 75.2847 302.89C74.8533 303.118 74.4841 303.448 74.2093 303.851C73.9345 304.255 73.7624 304.719 73.7079 305.204C73.6533 305.689 73.7181 306.18 73.8965 306.634L66.3951 314.135C65.7544 313.884 65.0468 313.861 64.3911 314.07C63.7355 314.279 63.1718 314.707 62.7949 315.283C62.418 315.859 62.2508 316.547 62.3215 317.231C62.3922 317.916 62.6964 318.555 63.183 319.042C63.6696 319.529 64.309 319.833 64.9935 319.903C65.678 319.974 66.366 319.807 66.9418 319.43C67.5176 319.053 67.946 318.489 68.1551 317.834C68.3641 317.178 68.3411 316.471 68.0898 315.83L75.5912 308.328C76.2939 308.605 77.0753 308.605 77.778 308.328L82.2839 312.834C82.1055 313.289 82.0407 313.779 82.0952 314.264C82.1498 314.749 82.3219 315.213 82.5967 315.617C82.8715 316.02 83.2407 316.35 83.6721 316.578C84.1035 316.806 84.584 316.925 85.072 316.925C85.56 316.925 86.0405 316.806 86.4719 316.578C86.9033 316.35 87.2725 316.02 87.5473 315.617C87.8221 315.213 87.9942 314.749 88.0487 314.264C88.1033 313.779 88.0385 313.289 87.8601 312.834L94.1633 306.531C94.5735 306.692 95.0142 306.761 95.4539 306.732C95.8937 306.703 96.3217 306.578 96.7074 306.365C97.0931 306.152 97.427 305.856 97.6854 305.499C97.9437 305.142 98.1201 304.733 98.202 304.299C98.2839 303.866 98.2692 303.421 98.159 302.994C98.0488 302.567 97.8458 302.17 97.5645 301.831C97.2832 301.492 96.9305 301.219 96.5316 301.031C96.1327 300.844 95.6974 300.747 95.2567 300.748Z" fill="#AA95FD"/>
<path d="M199.864 161.942C199.555 161.836 199.243 161.738 198.929 161.647C198.981 161.435 199.029 161.222 199.073 161.007C199.781 157.562 199.318 154.787 197.737 153.873C196.223 152.996 193.741 153.91 191.237 156.094C190.991 156.31 190.749 156.532 190.513 156.76C190.356 156.609 190.194 156.46 190.029 156.315C187.404 153.979 184.773 152.995 183.194 153.912C181.681 154.79 181.231 157.399 181.868 160.665C181.932 160.987 182.004 161.309 182.083 161.629C181.711 161.735 181.351 161.848 181.007 161.968C177.934 163.043 175.969 164.728 175.969 166.475C175.969 168.281 178.078 170.091 181.283 171.189C181.543 171.277 181.805 171.359 182.07 171.435C181.984 171.778 181.908 172.124 181.842 172.475C181.236 175.684 181.709 178.231 183.219 179.104C184.78 180.006 187.397 179.079 189.948 176.845C190.15 176.668 190.352 176.482 190.554 176.285C190.809 176.532 191.071 176.771 191.341 177.003C193.811 179.133 196.251 179.994 197.759 179.118C199.318 178.213 199.825 175.477 199.167 172.147C199.116 171.893 199.058 171.633 198.992 171.369C199.176 171.314 199.357 171.258 199.533 171.2C202.863 170.094 205.032 168.305 205.032 166.477C205.031 164.721 203.003 163.025 199.864 161.942ZM192.054 157.033C194.199 155.161 196.204 154.423 197.118 154.951C198.091 155.513 198.47 157.781 197.858 160.756C197.818 160.95 197.774 161.143 197.727 161.335C196.447 161.044 195.149 160.839 193.842 160.72C193.093 159.642 192.272 158.615 191.385 157.648C191.602 157.437 191.825 157.232 192.052 157.033H192.054ZM184.55 167.968C184.813 168.477 185.088 168.979 185.374 169.475C185.666 169.982 185.97 170.48 186.287 170.971C185.387 170.874 184.493 170.73 183.608 170.54C183.865 169.709 184.181 168.846 184.55 167.968ZM184.55 165.042C184.187 164.183 183.879 163.338 183.627 162.522C184.456 162.336 185.34 162.184 186.262 162.069C185.953 162.551 185.656 163.04 185.37 163.536C185.085 164.032 184.811 164.534 184.548 165.042H184.55ZM185.21 166.506C185.593 165.708 186.005 164.925 186.446 164.158C186.888 163.391 187.357 162.641 187.855 161.909C188.72 161.844 189.606 161.81 190.502 161.81C191.397 161.81 192.289 161.844 193.153 161.91C193.646 162.64 194.113 163.387 194.554 164.15C194.994 164.914 195.412 165.693 195.806 166.487C195.417 167.288 195.001 168.074 194.557 168.845C194.116 169.612 193.652 170.364 193.164 171.1C192.301 171.16 191.408 171.194 190.5 171.194C189.592 171.194 188.716 171.165 187.869 171.11C187.367 170.376 186.893 169.623 186.448 168.852C186.003 168.081 185.59 167.299 185.208 166.506H185.21ZM195.631 169.467C195.924 168.959 196.205 168.445 196.474 167.924C196.843 168.76 197.169 169.616 197.45 170.486C196.555 170.687 195.65 170.842 194.738 170.949C195.046 170.461 195.344 169.967 195.631 169.467ZM196.462 165.043C196.194 164.532 195.915 164.028 195.626 163.529C195.343 163.037 195.049 162.552 194.743 162.072C195.669 162.19 196.559 162.346 197.393 162.537C197.125 163.387 196.814 164.223 196.462 165.043ZM190.514 158.537C191.119 159.198 191.689 159.888 192.224 160.606C191.08 160.552 189.935 160.552 188.789 160.606C189.354 159.859 189.932 159.166 190.514 158.537ZM183.819 154.988C184.792 154.423 186.942 155.23 189.208 157.244C189.353 157.373 189.499 157.508 189.644 157.648C188.752 158.616 187.926 159.641 187.17 160.718C185.865 160.836 184.57 161.038 183.291 161.324C183.217 161.027 183.151 160.728 183.091 160.427C182.544 157.628 182.906 155.517 183.819 154.988ZM182.402 170.236C182.16 170.167 181.921 170.093 181.684 170.012C180.268 169.527 179.097 168.895 178.294 168.207C177.574 167.59 177.21 166.974 177.21 166.475C177.21 165.415 178.788 164.062 181.419 163.145C181.75 163.03 182.083 162.925 182.419 162.83C182.81 164.086 183.284 165.314 183.836 166.508C183.277 167.718 182.798 168.964 182.402 170.236ZM189.13 175.908C188.002 176.896 186.873 177.596 185.877 177.949C184.982 178.266 184.269 178.275 183.839 178.026C182.922 177.497 182.541 175.451 183.061 172.707C183.122 172.384 183.193 172.061 183.273 171.738C184.564 172.016 185.872 172.206 187.189 172.307C187.953 173.389 188.786 174.421 189.684 175.394C189.503 175.572 189.319 175.743 189.13 175.908ZM190.548 174.502C189.96 173.866 189.373 173.161 188.8 172.405C189.356 172.426 189.923 172.437 190.5 172.437C191.092 172.437 191.678 172.425 192.256 172.399C191.723 173.128 191.153 173.83 190.548 174.502ZM198.088 176.233C197.915 177.168 197.566 177.791 197.136 178.041C196.22 178.573 194.261 177.882 192.149 176.06C191.907 175.852 191.665 175.628 191.418 175.394C192.299 174.416 193.113 173.381 193.854 172.294C195.179 172.182 196.494 171.978 197.79 171.685C197.849 171.925 197.902 172.16 197.947 172.39C198.238 173.861 198.28 175.192 198.088 176.233ZM199.141 170.018C198.983 170.071 198.819 170.122 198.653 170.172C198.247 168.91 197.755 167.677 197.181 166.482C197.733 165.303 198.206 164.088 198.596 162.845C198.893 162.932 199.182 163.023 199.46 163.119C202.149 164.047 203.79 165.42 203.79 166.475C203.79 167.601 202.018 169.063 199.141 170.018Z" fill="#95B8FD"/>
<path d="M190.5 169.076C191.016 169.078 191.52 168.927 191.949 168.642C192.378 168.356 192.713 167.95 192.912 167.475C193.11 166.999 193.163 166.476 193.063 165.97C192.964 165.464 192.717 165 192.353 164.635C191.989 164.27 191.525 164.021 191.02 163.92C190.515 163.819 189.991 163.87 189.514 164.067C189.038 164.263 188.631 164.597 188.345 165.025C188.058 165.454 187.905 165.957 187.905 166.473C187.905 166.814 187.971 167.152 188.101 167.468C188.231 167.784 188.422 168.07 188.663 168.312C188.904 168.554 189.191 168.746 189.506 168.877C189.821 169.008 190.159 169.076 190.5 169.076Z" fill="#95B8FD"/>
<defs>
<clipPath id="clip0">
<rect width="31.1532" height="31.1532" fill="white" transform="translate(64.7031 393.009)"/>
</clipPath>
</defs>
</svg>
