<svg width="55" height="55" viewBox="0 0 55 55" fill="none" xmlns="http://www.w3.org/2000/svg">
<rect width="55" height="55" rx="10" fill="url(#paint0_linear)"/>
<path fill-rule="evenodd" clip-rule="evenodd" d="M36.3539 10.7141C33.9306 10.7141 31.9662 12.6786 31.9662 15.1019V23.7546C31.2753 23.246 30.5167 22.8281 29.7081 22.5148C27.9091 21.8177 25.9438 21.6698 24.0608 22.0896C22.1777 22.5095 20.4614 23.4783 19.1289 24.8736C17.7964 26.2688 16.9076 28.0279 16.5749 29.9283C16.2421 31.8287 16.4804 33.7851 17.2596 35.5501C18.0387 37.3151 19.3238 38.8095 20.9522 39.8441C22.5806 40.8788 24.4793 41.4073 26.4081 41.3629L26.3183 37.462C25.161 37.4887 24.0218 37.1715 23.0447 36.5507C22.0677 35.9299 21.2967 35.0334 20.8292 33.9744C20.3617 32.9154 20.2187 31.7415 20.4184 30.6013C20.618 29.461 21.1513 28.4056 21.9508 27.5684C22.7502 26.7312 23.78 26.1499 24.9099 25.898C26.0397 25.6461 27.2189 25.7349 28.2983 26.1532C29.3777 26.5714 30.3088 27.3004 30.9739 28.2478C31.4903 28.9834 31.8283 29.825 31.9662 30.7062V41.4284C34.3894 41.4284 36.3539 39.4639 36.3539 37.0406V10.7141Z" fill="white"/>
<defs>
<linearGradient id="paint0_linear" x1="27.5" y1="0" x2="27.5" y2="55" gradientUnits="userSpaceOnUse">
<stop stop-color="#343434"/>
<stop offset="1" stop-color="#343434" stop-opacity="0.8"/>
</linearGradient>
</defs>
</svg>
