<svg width="139" height="139" viewBox="0 0 139 139" fill="none" xmlns="http://www.w3.org/2000/svg">
<path d="M8.6875 43.4375V123.797C8.6875 124.373 8.91632 124.925 9.32363 125.333C9.73093 125.74 10.2834 125.969 10.8594 125.969H47.7812V43.4375C47.7812 42.2855 47.3236 41.1806 46.509 40.366C45.6944 39.5514 44.5895 39.0938 43.4375 39.0938H13.0312C11.8792 39.0938 10.7744 39.5514 9.95975 40.366C9.14514 41.1806 8.6875 42.2855 8.6875 43.4375V43.4375Z" stroke="#004061" stroke-width="6" stroke-linecap="round" stroke-linejoin="round"/>
<path d="M86.875 13.0312H52.125C50.973 13.0313 49.8681 13.4889 49.0535 14.3035C48.2389 15.1181 47.7812 16.223 47.7812 17.375V125.969H91.2188V17.375C91.2188 16.223 90.7611 15.1181 89.9465 14.3035C89.1319 13.4889 88.027 13.0313 86.875 13.0312V13.0312Z" stroke="#004061" stroke-width="6" stroke-linecap="round" stroke-linejoin="round"/>
<path d="M125.969 56.4688H95.5625C94.4105 56.4688 93.3056 56.9264 92.491 57.741C91.6764 58.5556 91.2188 59.6605 91.2188 60.8125V125.969H128.141C128.717 125.969 129.269 125.74 129.676 125.333C130.084 124.925 130.312 124.373 130.312 123.797V60.8125C130.312 59.6605 129.855 58.5556 129.04 57.741C128.226 56.9264 127.121 56.4688 125.969 56.4688Z" stroke="#004061" stroke-width="6" stroke-linecap="round" stroke-linejoin="round"/>
</svg>
