<svg width="224" height="107" viewBox="0 0 224 107" fill="none" xmlns="http://www.w3.org/2000/svg">
<path d="M89.1668 93.625V84.7083C89.1668 79.9786 87.288 75.4427 83.9436 72.0983C80.5992 68.7539 76.0632 66.875 71.3335 66.875H35.6668C30.9371 66.875 26.4012 68.7539 23.0568 72.0983C19.7124 75.4427 17.8335 79.9786 17.8335 84.7083V93.625" stroke="#199BDE" stroke-width="6" stroke-linecap="round" stroke-linejoin="round"/>
<path d="M53.4998 49.0417C63.3489 49.0417 71.3332 41.0574 71.3332 31.2083C71.3332 21.3593 63.3489 13.375 53.4998 13.375C43.6508 13.375 35.6665 21.3593 35.6665 31.2083C35.6665 41.0574 43.6508 49.0417 53.4998 49.0417Z" stroke="#199BDE" stroke-width="6" stroke-linecap="round" stroke-linejoin="round"/>
<path d="M206.167 93.625V84.7083C206.167 79.9786 204.288 75.4427 200.944 72.0983C197.599 68.7539 193.063 66.875 188.333 66.875H152.667C147.937 66.875 143.401 68.7539 140.057 72.0983C136.712 75.4427 134.833 79.9786 134.833 84.7083V93.625" stroke="#FF6B52" stroke-width="6" stroke-linecap="round" stroke-linejoin="round"/>
<path d="M170.5 49.0417C180.349 49.0417 188.333 41.0574 188.333 31.2083C188.333 21.3593 180.349 13.375 170.5 13.375C160.651 13.375 152.667 21.3593 152.667 31.2083C152.667 41.0574 160.651 49.0417 170.5 49.0417Z" stroke="#FF6B52" stroke-width="6" stroke-linecap="round" stroke-linejoin="round"/>
</svg>
