<svg width="183" height="183" viewBox="0 0 183 183" fill="none" xmlns="http://www.w3.org/2000/svg">
<path d="M91.5 28.5938C79.0583 28.5937 66.8961 32.2831 56.5512 39.1954C46.2063 46.1076 38.1435 55.9322 33.3822 67.4268C28.621 78.9214 27.3753 91.5698 29.8025 103.772C32.2298 115.975 38.221 127.184 47.0186 135.981C55.8162 144.779 67.025 150.77 79.2276 153.198C91.4302 155.625 104.079 154.379 115.573 149.618C127.068 144.857 136.892 136.794 143.805 126.449C150.717 116.104 154.406 103.942 154.406 91.5C154.406 74.8162 147.779 58.8158 135.981 47.0186C124.184 35.2214 108.184 28.5938 91.5 28.5938Z" stroke="#004061" stroke-width="9" stroke-miterlimit="10"/>
<path d="M82.9219 57.1875C77.8321 57.1875 72.8566 58.6968 68.6246 61.5245C64.3926 64.3523 61.0942 68.3714 59.1464 73.0738C57.1987 77.7761 56.689 82.9504 57.682 87.9424C58.675 92.9344 61.1259 97.5198 64.7249 101.119C68.324 104.718 72.9094 107.169 77.9014 108.162C82.8933 109.155 88.0677 108.645 92.77 106.697C97.4723 104.75 101.492 101.451 104.319 97.2191C107.147 92.9871 108.656 88.0117 108.656 82.9219C108.656 79.5424 107.991 76.196 106.697 73.0738C105.404 69.9515 103.508 67.1146 101.119 64.7249C98.7292 62.3353 95.8922 60.4397 92.77 59.1464C89.6478 57.8531 86.3014 57.1875 82.9219 57.1875V57.1875Z" stroke="#004061" stroke-width="9" stroke-miterlimit="10"/>
<path d="M101.379 101.379L120.094 120.094" stroke="#004061" stroke-width="9" stroke-miterlimit="10" stroke-linecap="round"/>
</svg>
